<svg width="172" height="42" fill="none" xmlns="http://www.w3.org/2000/svg"><path d="M94 9h78v28l-77.922-.036L94 9z" fill="url(#paint0_linear_1_3442)"/><path d="M111.42 15H107v16h4.42v-2.133h-2.105V17.133h2.105V15zm9.08 10.737c-.729.251-1.344.424-1.862.424-.923 0-1.425-.534-1.425-1.553v-3.059h3.303v-2.118h-3.303v-2.353l-2.315.487v1.866h-1.587v2.118h1.587v3.184c0 2.479 1.554 3.514 3.335 3.514 1.069 0 2.17-.376 2.655-.69l-.388-1.82zm6.201-6.494c-2.72 0-4.646 1.93-4.646 4.518 0 2.572 1.91 4.486 4.695 4.486 1.91 0 3.691-.894 4.355-2.933h-2.396c-.308.69-1.085 1.082-1.975 1.082-1.199 0-2.17-.69-2.316-2.07h6.833c.226-2.84-1.603-5.083-4.55-5.083zm-.016 1.851c1.117 0 1.846.643 2.105 1.584h-4.258c.291-.925 1.02-1.584 2.153-1.584zm10.885 7.153c2.137 0 4.096-1.208 4.452-3.482h-2.379c-.276.94-1.118 1.412-2.073 1.412-1.36 0-2.299-.989-2.283-2.432-.016-1.427.891-2.431 2.299-2.431.939 0 1.781.455 2.057 1.396h2.379c-.34-2.196-2.266-3.467-4.436-3.467-2.687 0-4.646 1.945-4.646 4.502 0 2.557 1.959 4.502 4.63 4.502zm11.409-9.004c-1.231 0-2.121.486-2.769 1.365V15.98h-2.315v12.08h2.315v-4.534c0-1.411.696-2.148 1.992-2.148 1.214 0 1.667.627 1.667 1.756v4.926h2.315v-5.412c0-2.118-1.214-3.404-3.205-3.404zM154.58 15v2.133h2.105v11.734h-2.105V31H159V15h-4.42z" fill="#fff"/><path d="M27.416 8.554h.194c.05.732.146 1.46.291 2.18.086.504-.114 1.462-.322 1.735.055.232.06.474.012.708-.868 4.42-3.932 7.042-6.657 9.517-1.237 1.124-2.572 2.379-4.055 3.206.421.964 1.264 1.725 1.812 2.565.504.773 1.03 1.462 1.583 2.186l.249.128c.267.349.486.757.828 1.03a1.728 1.728 0 00-.152.321h.063c.034-.072.097-.301.14-.128h.065v.064c.038.098 0 0-.015.192h.194c-.114.624.05.511.255.9 0 0-.162.641-.116.708v.066l.135-.066c.04-.113.09-.22.154-.32v.063c.2.304-.015 1.317-.23 1.351-.061-.051-.015-.023-.124-.064.013-.13 0-.262-.036-.387h-.063c-.07.214.023.098-.146.194v-.066c-.16-.184-.15-.352-.421-.449v.129c.135.154.07.021.046.256h.129c.07-.051.019-.021.135-.064-.066.327.35.808.246 1.03-.07.051-.019.021-.135.064l.015-.194c-.367.03-.21-.015-.442-.128-.108-.054-.06.085-.074.128l-.19-.064-.015.194c.144.086.112.077.12.128a.55.55 0 01-.343.257v.064c.21.047.21.105.373.192-.025.067-.053.13-.078.195a2.168 2.168 0 01-.472.256v-.064c-.042-.068-.034-.06-.05-.192-.083-.066.023-.043.08-.195-.066-.057 0 0-.06-.064-.187.116-.261.111-.402.195-.055.068-.044.06-.08.192h.324a.979.979 0 01.04.32h-.13c-.289-.228-.869-.264-.94-.384-.146-.135-.02-.113-.11-.259-.261.159-.369-.05-.573-.128v.128c.133.107.116.184.303.259.108.105.154.111.378.128-.034.133-.024.124-.078.193-.227-.17-.48-.3-.748-.385l-.013.192c.242.124.409.265.683.385v.066h-.063a2.306 2.306 0 01-1.012-.323c.17-.094.072.015.143-.192h-.128c-.131.158 0 .199-.279.257a1.025 1.025 0 00-.598-.642c0 .19.12.133-.084.259-.296-.56-.907-.842-1.326-1.282a13.345 13.345 0 01-1.532-1.995c-.07-.108-.293-.145-.369-.256-.13-.19-.154-.376-.28-.58l-.422-.386c-.38-.575-1.488-2.635-1.983-2.894v.064c-.242.334-.15.827-.29 1.283a25.368 25.368 0 00-.8 3.793h-.3v.064c.109.1.086.058.109.259-.327.152-.163.468-.56.577l-.024.323H9.13c-.061-.052-.015-.024-.125-.064l-.05-.193a.381.381 0 00.274-.194h-.194c-.074.132-.154.37-.293.45-.038-.213.04-.097-.114-.191.2.698-.493 1.378-1.02 1.543v-.13a.48.48 0 00.21-.321c-.065-.058 0 0-.058-.065-.211.124-.234.065-.527.129l.01-.129a.714.714 0 00.211-.322c-.065-.058 0 0-.059-.064h-.13c-.027.254-.105.5-.228.722-.065-.058 0 0-.06-.064-.075-.154-.02-.274-.096-.449h-.129c.006.22-.032.437-.111.641l-.135.066v-.066c-.063-.12-.02-.46-.085-.577-.122.077-.113 0-.2.064h-.063c.074.097.13.205.169.32-.154-.023-.097-.04-.26 0 .089.161.182.163.108.324-.074.047-.065.038-.21.064-.058-.252 0-.49-.277-.641-.061-.052-.015-.024-.124-.065v.129c.099.085.07.04.114.192h-.064c-.073-.051-.105-.05-.255-.064-.196-.366-.453-.712-.56-1.159a.523.523 0 00.278-.256l.185.128a.722.722 0 00-.421-.448 2.001 2.001 0 01-.333.128v.128a.83.83 0 01.297.32 3.746 3.746 0 00-.586.067l-.05-.195c.137-.023.126-.015.2-.064-.21-.072-.21-.072-.236-.32h.259c.064-.124.116-.254.158-.387h-.128c-.097.2-.211.213-.333.128-.045-.068-.036-.06-.051-.192.21-.054.097.032.21-.129h-.065v-.064h-.065c-.067.04-.023.14-.07.064-.046-.074-.033-.062-.048-.192.249-.342-.082-.705.095-1.282.333-1.093.221-1.823.54-2.894.672-2.266 1.279-5.888 2.431-8.36l.049-.64.21-.128c.095-.197.058-.563.117-.708.09.062.124.229.185.128h.063c-.392-.64.44-1.729.502-2.379-.053-.108.615-1.876.744-2.186.257-.618.369-1.21.647-1.738.2-.376.084-.987.295-1.348.282-.487.906-2.287 1.066-3.024l.124.066V9.39c-.075-.214.588-1.086.702-1.608.228.013.36.088.384.065.124-.1.093-.056.147-.257h-.128c-.07.051-.02.024-.135.064v-.128h.194c.032-.128.061-.257.093-.387h.259c.034-.135.025-.124.078-.194.792-.706 1.743-1.452 3.121-1.093.516-.203.993-.63 1.475-.835.354-.148.495.079.843 0 .167-.039.388-.231.536-.257.21-.038.235.214.507.129.33-.099.725-.24.985-.195 1.083.192 2.172-.306 3.228.066.466.165.647.52.976.772.289.214.833.105 1.14.32.224.159.312.554.53.708l.197-.064c.053.047-.017.213.047.258.063.045.421.011.573.129.076.06.076.168.238.256.074.492.32.846.358 1.415zM4.525 32.919c.105.085.095.111.19.064h.063v-.064h-.253zm.122 2.701h-.325l.011-.128a.744.744 0 00.337-.192l-.023.32zm-.048-1.092l-.011.129h.065v-.129H4.6zm-.022 1.157a.84.84 0 01.253.064l-.01.128h-.194v-.064c-.042-.069-.015-.02-.049-.13v.002zm.127-.836a.748.748 0 01.253.064v.128h-.268l.015-.192zm.483.579c.1-.079.071-.03 0-.13v.13zm.105.192v.129h.128v-.065l-.128-.064zm.137-.963a.665.665 0 00.036.384.663.663 0 00-.036-.387v.002zm.181 1.028v.128h.129l.01-.129H5.61zm.293-.321h.063c-.04-.115-.017-.066-.063-.133v.133zm.98-12.411l-.01.128h.065v-.128h-.055zm-.879 12.665c-.019.186-.07.09-.015.193.072.05.106.05.253.064v-.064a1.633 1.633 0 00-.238-.193zm.327-.064c.076.237-.013.304.23.387v-.066c-.047-.075-.043-.107-.047-.257l-.183-.064zm.297 1.223c-.07.213.025.098-.143.192v-.064c-.047-.066-.021-.017-.055-.128h.198zm.24-1.48a1.87 1.87 0 00-.107.578c.065.06 0 0 .059.066h.128l.021-.259c.078-.126.009-.267-.1-.384zm.605-.322c.103.073.061.115.13 0h-.13zm-.04 1.415c.158.094.074-.013.116.192-.057.066-.025.02-.076.13-.065-.06 0 0-.059-.064s-.02-.019-.055-.13c.057-.064.024-.017.074-.128zm.382-.772v.128h.128v-.064l-.128-.064zm-.03.387v.128h.065c-.042-.113-.019-.062-.065-.128zm.238-.58v.13h.066v-.13h-.066zm.249.13c-.074.202-.173.403-.242.64h.128v-.128a.511.511 0 00.114-.513zm.66-.193c.063.126.029.115-.02.256H8.85v-.128c.066-.066.034-.006.085-.128h-.002zm.499-1.48v.129h.065v-.128h-.065zm-.021.257a.82.82 0 00.046.259c.057-.066.026-.02.074-.13h.065c.07-.065-.059-.063-.059-.065-.063-.05-.016-.021-.126-.064zm2.965-26.75v.128h.066V7.39h-.066zm1.374-1.094l-.01.128h.194v-.128h-.184zM12.805 20.7v.128h.065V20.7h-.065zm.078-.192v.128h.055v-.128h-.055zm.476.513h.26c.267-.451 1.574-1.069 2.046-1.413 1.028-.776 1.954-1.71 2.965-2.51.358-.284.605-.767.982-1.027l.015-.193c.135-.025.127-.017.198-.064.961-1.03 2.148-3.219 1.718-4.824-.512.043-1.244-.393-2.055-.192-.674.167-1.054.562-1.732.707-.053-.198-.049-.188-.24-.258-.211.282-.976.455-1.084.641-.544.701-.501 1.7-.904 2.65-.053.122-.249.28-.289.385.015.107.028.214.042.323a90.282 90.282 0 01-1.066 3.022l-.112.641c-.253.605-.657 1.387-.744 2.112zm1.358-6.045l-.085.26h.066v-.131c.04-.045.094 0 .073-.129h-.054zm2.318-9.517c.063.054.017.024.124.064-.052-.051-.006-.021-.116-.064h-.008zm.33 31.125h.131v.064h-.132l.002-.064zm.844-.771c.078.104.035.07.183.128v-.064l-.183-.064zm1.1.835l.19.064v.065h-.07v.064c-.065-.058 0 0-.061-.064-.061-.065-.025-.011-.06-.129zm.373-.579c.06.054.017.024.124.064-.067-.051-.02-.021-.124-.064zm.77-.771c-.07.14-.064.094-.144.194h.128c.089-.18.127-.051.009-.194h.006zm.088-.32l-.011.127h.194v-.128h-.183zm2.366-30.096v.128c.1-.077.072-.025 0-.128zm.253.064v.128h.066v-.128h-.066zm.21.515c.064.052.018.022.127.064-.054-.05-.008-.023-.118-.064h-.008zm-2.088 29.772v.129h.066c-.034-.111-.01-.062-.057-.129h-.009zM23.56 5.526v.129h.194V5.59l-.194-.065zm-1.94 27.01h.13c-.085.102-.034.076-.13 0zm-.172 2.307c.046.065.021.017.055.129h-.066l.01-.129zm.185-.771l-.023.32h.066c.124-.055.05-.03.193 0l.015-.192a.836.836 0 01-.25-.122v-.006zm.06.964h.128c-.084.109-.032.085-.129.006v-.006zm4.406-27.902c.097.136.17.194.245.192.056-.064.025-.017.073-.128h-.128c-.074-.047-.06-.039-.19-.064zm.909 6.044c-.028.066-.055.128-.08.194h.193v-.066c-.048-.049-.063-.079-.113-.128zm.082-.257v.129h.063v-.129h-.063zm.24-1.479a.812.812 0 00.032.451.81.81 0 00-.032-.45zm.025.515v.129h.063l.011-.129h-.074zm-.031.45c.012.134 0 .123.048.194v-.066c.057-.065.023-.018.074-.129h-.122z" fill="#14004B"/><path d="M31.485 35.697l-.015.192h-.065c-.21-.062-.462.317-.919.193a7.255 7.255 0 01-1.505-.641c-.398-.214-.927-.214-1.327-.385.035-.156.048-.1.019-.259-.097-.042-.228-.164-.308-.192l-.266.064c-.18-.085-.134-.461-.278-.58-.421-.339-.71.119-.917-.706.135-.024.125-.016.198-.065-.366-.074-.402-.48-.653-.771.051-.123.082-.252.093-.385h-.194c-.386-.814-.537-1.973-.693-2.83-.08-.427.17-1.036.099-1.35-.445-1.971.575-6.002 1.226-7.782.116-.314.283-.517.382-.772.038-.213.074-.427.111-.64.066-.119.283-.255.352-.386.118-.213.047-.404.177-.64.211-.394.654-.89.873-1.283.318-.573.421-1.374 1.024-1.607.12-.077.114 0 .21-.065a.506.506 0 00.148-.256c.01-.075-.012-.081-.046-.259.221-.145.266-.297.422-.513.452-.442.936-.85 1.447-1.222.652-.462 1.476-.866 2.045-1.415.054.047.067.081.12.13.15-.472 1.93-1.175 2.295-1.282.259-.079.47.147.577.064h.064c-.066-.1-.066-.053-.114-.192 1.25.092 2.992-.552 4.514.128.537.24.955.77 1.406 1.094.14.1.31.086.438.193.181.151.162.382.29.449.08-.052.112-.05.264-.063.063.17.249.276.289.45l-.097.45c.044.152.194.124.23.385-.158.105-.16.094-.211.323.114.096.097.177.24.256.05-.055.087-.072.14-.128a.547.547 0 01-.176-.259h.194c.061.165.092.34.09.515.074.207.08.432.018.642l-.198.064c-.028.154.103.154.099.387h-.064v.064h-.128a.8.8 0 00-.548-.451v.064c.135.173-.03.158.04.323l.365.32c.048.133-.102.755-.013 1.03.088.276.367.599.449.9l-.028.385c.125.678.161 1.37.106 2.058-.025.331-.15.723-.137.964.061 1.261-.69 2.977-1.197 3.924-.186.342-.087.656-.266.964-.367.598-.7 1.218-.997 1.855-.537 1.19-1.686 2.398-2.453 3.407-.137.182-.15.41-.301.58-.51.568-.946.942-1.404 1.478-.457.537-.468 1.002-1.195 1.282v.13c.211 0 .095-.108.19.065h-.065c-.483.391-.94.945-1.575 1.156-.53.178-.823-.034-1.302.128-.265.092-.632.48-.879.515-.246.037-.337-.153-.71-.192zm-5.871-13.185c.063.054.016.024.124.067-.061-.047-.015-.018-.124-.06v-.007zm-.35 4.702v.129h.063c-.04-.114-.015-.062-.063-.129zm.476 4.888v.129h.194v-.065l-.194-.064zm.632 1.157l-.019.258h.129v-.13c-.055-.04-.055-.081-.116-.129h.006zm.854 1.543h.13v.13h-.128l-.002-.13zm4.66-5.273l.014-.192c.422.023.767.023.925-.257-.194.024-.143.128-.255-.064.152-.143.089-.194.344-.259.034-.132.025-.121.078-.192.21-.197.474-.214.622-.515-.135-.152-.07-.021-.047-.256.251-.225.329-.377.685-.516l-.046-.256h.194l.02-.256c.283-.135.068-.242.365-.58.1-.113.3-.154.407-.256.108-.103.356-.855.54-1.159.27-.45.695-1.055.956-1.543l.116-.707c.245-.573.48-1.212.633-1.607a3.868 3.868 0 00.132-1.802c-.05-.214-.17-.626-.076-.707-.47-.503-.958-.657-1.475-1.157l.076-.128c.18.082.374.125.571.128-.019-.325.026-.075.089-.323h-.063v-.064c-.29-.034-.645-.083-.818-.32.127-.043.26-.064.394-.064.327.136.664.243 1.01.32h.065v-.064a.652.652 0 01-.377-.16.67.67 0 01-.211-.355c-1.096 0-1.663.765-2.354 1.223-.955.64-1.311 1.496-1.874 2.564-1.153 2.204-2.502 6.726-1.406 9.325.26.039.515.103.761.193l.004.006zm-1.733 5.916c.093.15.082.152.308.194v-.13a.998.998 0 00-.314-.064h.006zm.632.259l-.078.192h.323a.424.424 0 01.139-.128v-.064h-.384zm.957.192h.129v.064h-.131l.002-.064zm3.699-1.924l-.01.129h.058c-.038-.114-.014-.067-.06-.133l.012.004zm1.77-17.686c.063.054.017.024.124.067-.073-.058-.027-.028-.137-.07l.013.003zm-.036 1.99c.047.067.021.02.055.128h-.055v-.128zm.243-2.378c.08.104.035.072.183.128v-.064l-.183-.064zm-.024 1.158a.803.803 0 00.047.256h.065v-.128c-.04-.049-.053-.081-.107-.128h-.005zm1.383-7.267v.128h.129l.01-.128h-.14zm.449.064c.093.118.05.09.248.129v-.065h-.063v-.064h-.185zm.2.772c.063.051.017.023.124.064-.056-.051-.01-.024-.12-.064h-.004zm.864-.32c-.032-.114 0-.065-.055-.131v.13h.055zm.047.256c.08.104.035.07.183.128v-.064l-.184-.064zm1.053.771l-.01.128c.103-.077.073-.025.01-.128zm1.216 1.028v.067h-.065c-.127.049.124.062.124.062.066-.069 0 0 .07-.063-.08-.053-.028-.025-.137-.066h.008zm.371 1.095c-.027.09.087.094.12.128.042-.069-.111-.114-.128-.128h.008zm-.038.515c.1.19.186.34.31.192-.194-.068-.152-.118-.318-.192h.008zm.514.9c.047.121.028.046-.012.192h-.066v-.064h-.065v-.064c.118-.041.066-.013.135-.065h.008zm-.078 1.923v.13h.066l.01-.13h-.075zm-.056 2.51l-.08.191h.128c-.021-.128-.015-.12-.057-.188l.009-.004zm-.137.963l.05.195h.063v-.067h.066v-.064h-.063c-.064-.047-.011-.021-.125-.06l.009-.004zm.297-2.25l-.01.128h.064v-.128h-.054zm34.022-6.823l.036-.384c-.185.09-.21.188-.236.444-.13-.028-.122-.017-.187-.068-.053-.118 0-.116.031-.32a.743.743 0 00-.335.121 5.427 5.427 0 01-.046-.195c.166-.074.345-.114.527-.117.014-.13.004-.26-.028-.387-.01-.062.015-.045-.187-.068-.021-.229-.057-.289.107-.45-.08-.162.023-.074-.181-.132 0-.228.048-.162-.105-.258-.106-.052-.363.092-.534.181l-.019.193c-.23.049-.234.09-.347.25-.108-.043-.061-.013-.123-.066-.097-.056.076-.099.148-.19h-.07v-.065c-.038-.057-.135.12-.14.126h-.066c.147-.239.284-.374.185-.577v-.064c-.04-.058-.135.12-.14.126h-.132l.114-.513c.05.033.09.078.118.13h.063c-.099-.442-.41-.427-.632-.722-.288.317-.407 1.261-.34 1.54l-.2.059a2.022 2.022 0 00-.162-.325c-.06-.053-.014-.023-.124-.066v.064h-.065a.904.904 0 00.286.393l-.012.128a2.314 2.314 0 00-.557-.269 5.83 5.83 0 00.131-.705.73.73 0 00-.25-.07A.687.687 0 0074 8.55c-.032-.099-.21-.197-.359-.33v-.064a2.248 2.248 0 00-.195.706.667.667 0 01-.028-.387h-.194c-.118.322-.347.463-.465.827.114.14.258.254.421.331-.21.096-.333-.088-.497-.203-.148.214-.224.254-.411.248.07.158-.036.045.116.132a.494.494 0 01-.154.255c-.053.043-.152.081-.211.124h-.065a3.99 3.99 0 01.078-.128h-.066v-.065c-.194.24-.369.496-.525.763l-.073.772c-.177.242-.696 1.227-.765 1.924h-.192c.093.624-1.016 2.406-1.391 3.062-.272.475-.381.91-.651 1.405-.498.912-3.823 8.51-4.519 8.976.078.162-.023.075.182.133v.064a2.015 2.015 0 00-.336.124h-.065c-.04.126.021.083.053.13-.097.141-.181.133-.342.186-.048.199-.054.154-.03.32a.895.895 0 01-.246-.132l-.038.214a4.41 4.41 0 01-.512.401c-.054-.213-.099-.427-.145-.64l.013-.142c0-3.75.71-9.154 1.662-11.847.102-.286 0-.551.127-.854.196-.428.449-.973.643-1.396.14-.31-.125-.25.06-.455 0-.289.053-.785-.067-.956v-.075c-.236.148-.362.588-.45.868h-.066v.064h-.063c.038-.49.253-.76.124-1.1l.194-.08c-.06-.341-.177-.2-.261-.493-.055-.137-.051-.066.063-.197-.055-.263-.015-.192-.194-.177V10.6a.461.461 0 00-.26.086c-.328.055-.292.102-.387.35l-.194.015c.04-.163.105-.32.192-.463v-.257h-.13a1.805 1.805 0 01-.258.598v.065h-.065c.059-.201.156-.214.063-.39v-.128l-.194.015v.193h-.065v-.065h-.066c.064-.202.152-.337.129-.459-.04-.34-.156-.314-.327-.487l-.324.023-.063.135c-.108.256-.062.427-.192.656-.076.126-.35.282-.388.415l.065.186h-.065v.064l-.194.015c.081-.322.214-.627.394-.904v-.385c-.103.094-.076.045-.128.2-.173-.061-.135-.112-.325-.166-.062.21-.148.41-.257.598v.065h-.13v-.513c-.05-.092-.136-.03-.195-.176-.177.1-.164.1-.194.334a2.254 2.254 0 00-.196-.178 5.731 5.731 0 01-.514.875v.128c-.052-.07-.052-.103-.065-.25-.186.021-.095.051-.194.015-.166.1-.173.17-.194.4-.133-.018-.124 0-.194-.05h-.065c.04.197.013.156.13.246-.094.167-.027.105-.259.15.068.047.017.021.131.053-.148.428-.478.855-.643 1.268-.368.914-.512 1.722-.898 2.635-.484 1.147-1.114 2.417-1.67 3.528-.395.789-.783 2.138-1.415 2.674.033.068.078.13.13.184-.065.05-.258.102-.324.152-.086.147-.019.181 0 .32-.086.156-.356.16-.453.293-.267.368-.409.81-.773 1.086v.256c-.3.073-.356.171-.388.479-.224.062-.892.855-.97 1.037.024.062.045.124.068.188-.21.374-.767.344-.71.825-.112-.035-.064 0-.131-.056-.042.058-.086.214-.129.267v.064h-.128l-.12.332a3.07 3.07 0 01-.396.267c-.066-.214-.186-.487-.251-.737l.023-.09a4.427 4.427 0 010-.528c.03-.178.055-.355.023-.368.096-.68.236-1.354.422-2.015.35-1.51.421-3.022.87-4.4l-.038-.381c.07-.308.285-.825.35-1.09-.034-.124-.07-.246-.103-.37l.13-.021-.027-.255.124-.085a16.581 16.581 0 01-.097-.306c.034-.073.268-.152.304-.246l-.038-.378c.228-.598.518-1.325.725-1.924.09-.267 0-.427.13-.666.245-.456.614-.909.563-1.58l.194-.032a4.16 4.16 0 01.084-1.111.96.96 0 00-.113-.496v-.062c-.192.17.01.372-.287.427.089.252.019.11.21.159-.084.134-.168.138-.231.297a2.627 2.627 0 00-.464-.05c.03-.117 0-.064.05-.139.134-.036.05-.066.138.043.352-.301-.03-.748.21-1.068-.246-.475-.42-.31-.351-.909l-.066.013c-.295-.083-.472.327-.67.5.1.18.036.143.276.148v.062l-.065.01.012.129-.063.01v-.064a1.566 1.566 0 01-.465-.049c.042-.16.014-.109.111-.214V9.51c-.09.045-.173.103-.246.171-.066-.203 0-.18.02-.455l-.193.034a.86.86 0 01-.21.487v.064l-.066.011a1.299 1.299 0 01.347-.927l-.038-.38-.128.02.025.253-.194.034c.049.17.097.17.032.316-.063.107-.082 0-.181.16-.116-.02-.063 0-.135-.04 0-.086.162-.57.137-.605.08-.17.017-.105.244-.169l-.012-.128c-.194.026-.184-.015-.26.045-.183.107-.164.177-.295.308.072.14.034.1.148.169v.061l-.316.12c-.049.314-.196.36-.19.742-.32.139-.392.502-.581.744v.062h-.064c.019-.157.047-.312.084-.464l.194-.034c0-.073-.012-.133-.014-.184l-.1.07v.064h-.065c0-.09.013-.179.04-.265l-.259.045-.012-.128.122-.085v-.062c.059-.075.071.05.071.05.055.06.045.054.085.18.15.05.065-.017.118.069a.365.365 0 01.158-.304c-.112-.14-.038-.096-.272-.083.07-.16.128-.122.238-.235l.065-.01a.91.91 0 00-.225-.285s-.013-.126-.07-.051v.064c-.145.169-.06.038-.04.263-.185-.041-.293-.33-.385-.577h-.066l-.05.136c.014.047-.017.045.14.105-.026.41-.185.081-.277.498l-.129.024v-.065c-.059-.055-.025-.01-.078-.115.14-.092.175-.075.238-.235l.066-.01-.013-.127c-.506.163-.767.906-1.265 1.182 0 .064.015.126.022.19.107-.06.06-.023.122-.085l.192-.034v.064l-.125.085c-.078.158-.156.167-.25.107a1.652 1.652 0 00-.313.54c-.042.133.114.193.091.242-.038.086-.352.394-.407.522-.444 1.02-.598 2.017-1.005 3.071-1.361 3.53-1.8 8.092-2.558 12.422l.082.823c-.228 1.71.192 4.011.632 5.048.065.15.308.214.36.325 0 .13-.016.26-.027.391a2.028 2.028 0 001.096 1.1c.082-.012.036.037.122-.085.392.022.439.428.715.588.111.028.03-.086.194-.034.337-.022.467.162.632.344v.023c.32-.02.643.019.95.114l.453-.035v-.128h-.065v-.064c-.274.013-.173-.064-.322.09h-.131l.063-.263c.268 0 .458 0 .584.147.086-.04.048-.027.065-.068.095-.167-.017-.075.194-.143v.256c.074-.062.186-.14.257-.213.061.12.028.047 0 .192.186-.021.093-.051.194-.015.175-.12.066 0 .063-.197.48.15.534-.273 1.037-.271.044-.126.066-.258.064-.391a.367.367 0 01.13.117c.407-.177 1.15-1.23 1.475-1.59 1.444-1.543 3.002-3.05 4.196-4.813h.129c.249.537.443 3.881.963 4.275.388.288 1.054.444 1.237.93.14-.07.093-.063.194-.144.6.581 1.452.819 2.468.964a.447.447 0 01.042-.045c.01 0 .02.02.032.028l-.017.098c.028-.022.056-.045.082-.07h.021l.082-.13c.127.08.049 0 .02.245.193-.068.185-.092.282-.252.042.07.035.06.046.194.38-.04.745-.164 1.07-.365.026.158.013.102-.025.256a.876.876 0 00.276-.181h.015a.582.582 0 01.12-.056c-.065.047-.027.028-.12.056h-.015l-.012.124h.259l.019-.193.181.133c.308-.308.474-.297.894-.562.573-.361 1.1-.943 1.618-1.383.055-.068.047-.06.083-.192h.193c-.014-.067-.031-.13-.046-.195.843-.35 2.285-2.503 2.976-3.42 2.137-2.831 4.101-9.205 5.94-12.361.25-.428.361-1.178.528-1.471a9.27 9.27 0 00.55-1.02c.164-.414.063-.668.232-1.092.17-.37.575-1.023.406-1.387zm-25.018.567l-.012-.126.128-.022.013.126-.129.022zm.335-.956l-.012-.126.128-.021.013.126-.129.021zm-.048-.515c.164.126.013.14.21.094l.02.19h-.33a.97.97 0 01.1-.284zm-.162.994l.063-.01v-.065c.059.058.025.013.078.118-.009.006-.264.028-.143-.043h.002zm.02-1.742c.104.15.035.16-.033.327l-.063.01a.71.71 0 01.095-.337h.002zm-.018.836l-.129.021-.019-.19c.171.056.07-.026.146.169h.002zm-.175.868c.164.126.012.139.21.094l.02.19h-.33a.976.976 0 01.098-.284h.002zm-.162.993l.063-.01v-.064c.059.057.025.013.078.115-.009 0-.264.03-.144-.04h.003zm.02-1.744c.104.152.034.163-.03.33l-.066.01a.728.728 0 01.095-.34h.002zm-.806.462c.115.021.065 0 .134.04h-.063v.065h-.065l-.007-.105zm.467-.906h-.063v.064h-.065l-.013-.126c.114.034.072.015.141.062zm-.843 7.296h.066v-.064c.059.058.025.013.078.116-.007-.02-.262.01-.144-.06v.008zm.666-7.399l-.065.011v.064l-.065.01-.02-.19c.176.048.05-.042.15.097v.008zm-.18.16c.04.04.092-.012.077.116h-.065c-.061.062-.017.026-.123.085l-.012-.126c.107-.057.061-.021.122-.083v.009zm-.684 8.236s-.255.03-.135-.041h.064v-.064c.052.038.019-.007.071.096v.009zm.411-8.319c.026.015.133 0 .078.116-.076-.026-.213-.09-.078-.124v.008zm-.758 10.381h-.064v.064h-.065l-.013-.128c.123.036.072.015.142.055v.009zM46.08 32.822v.129h-.066v-.129h.066zm-.114.855a.7.7 0 01.135.182c-.215-.098-.129-.021-.135-.2v.018zm.141.516l-.012-.127.065-.01.012.126-.065.01zm1.83-23.258l.193-.032c-.105.055-.078.05-.194.012v.02zm.147-.214c-.03-.06-.057-.12-.084-.177l.128-.024.02.19-.064.011zm.188-.74l.194-.034c-.106.056-.078.052-.194.015v.02zm-1.316 24.504c-.056-.038-.21-.068-.26-.104-.051-.037-.024-.017-.068-.122.158.029.312.079.457.15v.063l-.128.013zm1.56.565v.064l-.325-.039a.336.336 0 000-.045l.14-.038.185.058zM50.91 9.466h-.065v.062l-.063.013-.013-.128c.12.013.07-.004.141.034v.02zm-.31.182l.194-.034c-.025.145-.059.14.026.254v.062c-.186.024-.1-.028-.194.034l-.066.011c.007-.118.02-.236.04-.353v.026zm-.014.517h-.064l-.012-.126c.059.047.025.01.076.107v.02zm0 .257l-.066.01a.641.641 0 010 .062l-.065.013-.013-.128c.114.002.061-.017.133.024l.01.019zm-.31.181l.194-.034c-.026.146-.06.141.025.255v.062c-.186.023-.1-.028-.194.034l-.061-.015c.002-.107.011-.214.025-.32l.01.018zm-.013.518H50.2l-.013-.127c.055.048.015.003.068.107l.01.02zm-.697-.778v.192H49.5c-.023-.062-.046-.124-.067-.186l.133-.006zm-1.49 25.006c.111.032.063 0 .128.053-.122-.058-.072-.034-.139-.079l.01.026zm.387-.094l.194.049a.623.623 0 010 .064c-.162-.07-.116-.043-.204-.139l.01.026zm1.75-.201c.113.034.065 0 .13.055-.122-.053-.074-.034-.141-.08l.01.025zm7.433-6.153v-.13c.052.061.025.014.065.123l-.065.007zm5.69-17.629v.193c-.05-.066-.042-.056-.065-.188l.065-.005zm-.588-1.237v.192l-.194-.049c.089-.192-.023-.1.188-.169l.006.026zm-2.392 23.484a.71.71 0 01.196.116c-.16-.047-.114-.017-.196-.116zm.455.35v-.127l.13.053v.064l-.13.01zm.196-.014l.323.038v.064c-.237-.002-.222.013-.33-.102h.007zm1.62.258c-.11-.032-.062 0-.128-.053.106.032.057.009.123.053h.006zm-.096.146c.107.042.063.013.122.066-.114-.045-.067-.015-.129-.066h.007zm1.148-.36a.68.68 0 01.116-.068c-.067.054-.033.03-.122.069h.006zm1.149-1.108c.112.032.063 0 .129.053-.118-.034-.07-.009-.135-.053h.006zm.13.427c.108.045.062.015.123.068-.114-.051-.067-.021-.129-.075l.007.007zm.195-.383v-.13h.063v.126l-.063.004zm.187.456h-.065l.013-.13h.063a1.079 1.079 0 00-.017.123l.006.007zm6.506-22.399h-.065v-.064h-.066c.04-.092.092-.178.154-.257.053.12.006.12-.03.315l.007.006zm.124-.641c.095.083.24.126.106.258a.591.591 0 01-.112-.265l.006.007zm.14.581h.065v-.064c.044.066.02.015.05.128 0-.004-.25-.023-.122-.07l.006.006zm.501-.504h-.194c0-.043 0-.086.01-.128h.195l-.011.128zm.696-1.21h-.13c-.014-.064-.03-.128-.046-.192.108.042.064.012.125.066h.063l-.012.126zm.406-.186c-.147-.06-.105-.026-.181-.132l.188.068-.007.064zm.13.641l.032-.32c.112.109.104.094.1.322l-.131-.002zm.492.904c-.21-.094-.129-.021-.112-.196l.123.066-.011.13zm1.237-1.457v.064c-.044-.077-.042-.107-.04-.259h-.065a.468.468 0 00.023.451v.064a.895.895 0 01-.247-.134c.038-.13.028-.122.082-.19.064-.428.131-.195.302-.445a.433.433 0 01-.055.457V9.02zm.175 1.55v.063h-.063a.91.91 0 00.088-.256c.04.12.042.1-.031.2l.006-.008zm.896.79h.065l-.019.192s-.057.026-.059-.064h-.063l.076-.128zm-.078-1.225l-.013.129c-.114.038-.063.012-.135.062h-.063l.076-.127c-.3.137-.255.338-.371.51v.061h-.066c.068-.742.049-.547.338-.831h.259c-.032.196-.061.11-.025.205v-.009zm-.074 2.832v.066h-.066a.975.975 0 01.09-.256c.04.12.041.09-.024.199v-.009zm.377-.566c-.095.045-.084.02-.188-.069-.065-.06 0 0-.058-.066.145-.098.267-.227.358-.378a.577.577 0 01-.112.513zm.337-.832h-.065c-.053.112-.017.065-.076.129s-.019.023-.135.062v-.064h-.065l.101-.383c.112.083.097.128.24.197v.06zM75.32 34.035c.21-.054.096.032.21-.129 0-.083.228-.292.162-.45-.078-.084-.179-.214-.248-.129-.137.175-.163.552-.253.772h-.064v-.064c-.054-.133.06-.41.112-.642h-.13v-.064h-.064c-.07.214.023.099-.145.193l.02-.257c.256-.1.123-.102.212-.32a.93.93 0 01-.483-.451c.135-.024.124-.015.198-.065-.07-.136-.012-.177.028-.386h-.064v.064a1.523 1.523 0 00-.147.258c-.234.013-.127-.096-.211.129.318.254.388.67.17 1.158h-.128l.015-.194c.089-.134.145-.289.162-.45-.158-.044-.11-.151-.19-.063a2.049 2.049 0 00-.029.384l-.52.064c-.026-.213-.133-.181-.171-.32l.095-.387c0-.026-.171-.15-.182-.192-.07-.332.23-.81-.115-1.03a1.508 1.508 0 01-.178.64v-.128c-.24-.36-.019-1.382.14-1.863a68.636 68.636 0 001.127-3.86c.247-.924.558-2.618 1.054-3.663a2.935 2.935 0 01-.013-.71c.285-.891.506-2.165.887-3.206.07-.342.137-.686.211-1.028.333-.819.632-1.81.906-2.637.043-.278.087-.558.127-.836.32-.874.813-1.981.933-2.958.135-.024.125-.015.198-.064-.122-.265.485-1.137.692-1.48.122.056.249.099.38.13.1-.83.905-1.38 1.474-1.544v.064c.066.06 0 0 .061.064-.16.107-.078.229-.164.451h.13c.184-.23.47-.194.675-.387.167-.156.152-.316.356-.449l-.012.193a5.044 5.044 0 00-.382.771c.072.159-.031.045.12.129.1-.278.211-.214.352-.385l.243-.581h.194l-.034.45c-.099.052-.19.117-.272.193a.518.518 0 01.18.192c-.1.053-.19.117-.273.193a.985.985 0 01.249.13c-.112.085-.076.04-.146.192h.26a2.79 2.79 0 01.048-.64c.137-.024.127-.016.198-.065.177-.177.078-.32.283-.32.421.384.552 1.025.662 1.543h.065c-.015-.22.023-.44.112-.642a.448.448 0 01.263-.064v.064h.063l.036.385a1.257 1.257 0 00-.268.13c.262.116.422.082.422.45h.065c.06.066-.07.063-.07.063-.17.13-.162-.053-.278.259.192-.026.089-.107.19.064.101.171.055 1.069-.036 1.349-.105.31-.299.64-.392.902-.162.453-.158 1.113-.383 1.671-.704 1.744-1.12 4.106-1.798 5.916-.28.748-.21 1.614-.611 2.122.093.723-.537 2.98-.843 3.537l-.152 1.157c-.396 1.135-.645 2.511-1.108 3.601-.25.59-.211 1.154-.75 1.415-.083.053-.062.023-.2.064-.138.316-.357.406-.51.772h.064v.064a1.54 1.54 0 00.504-.708h.065l-.03.387a.521.521 0 00-.147.257c-.577.299-.876.78-1.428.963.016-.185.067-.087.014-.192-.071.051-.02.024-.135.064.018-.15.007-.302-.031-.449h-.129c-.05.323-.11.46-.421.513l.01-.128a.457.457 0 00.211-.32h-.063v-.065h-.066c-.031.263-.027.293-.22.385v.064h-.079v-.128c.226-.265.403-.57.52-.9h-.065c-.097.148-.086.118-.139.128-.187-.282.023-.502.192-.835h-.063c-.129.175-.386.267-.487.449-.21.372-.137 1.472-.76 1.543v-.064h-.066l.025-.203zM84.507 11.4v-.13c-.19 0-.087-.063-.194 0h-.065c.06.053.014.023.124.066.072.051.025.021.135.064zm-.1.449c-.037-.214.04-.099-.113-.193l-.015.193h.129zm.121-1.607l.01-.129h-.13v.064l.12.064zm-.185-.964c-.159-.094-.076.012-.116-.193h.065V9.02c.11.04.061.013.124.066.154.081.047-.028.12.128-.132.024-.122.015-.194.065zm-.047-.259h-.126v-.128h.13l-.004.128zm-.257.838a1.494 1.494 0 00-.025-.515.691.691 0 00-.211.32h.063c.053.186-.004.12.173.195zm-.21.192v-.128h-.13l-.01.128h.14zm-.114.641l.033-.384h-.128l-.03.384h.125zm-.178-1.8h.064l.073-.127h-.063c0-.09-.06-.065-.06-.065l-.014.193zm-.059.772c0-.08.135-.12.015-.192 0-.068-.135.177-.143.192h.128zm-2.048-.254V9.28h-.065v.128h.065zm-.434-.259l.078-.192h-.129c.009.133 0 .122.044.19l.007.002zm-.48.387l.157-.387h-.065c-.14.201-.255.22-.099.385l.006.002zm-.844.964c.07-.141.064-.092.146-.192h-.194l-.076.128.124.064zm-2.13 23.213l.08-.192h-.129l-.01.128-.07.064h.129zm1.536-21.477l.076-.13c-.12.08-.076.13-.076.13zm-1.804 21.605c.027-.09-.084-.094-.12-.128-.05.06.103.109.12.128zm-.48-.515V33.2h-.064c.042.113.017.062.064.128zm.042-.579l.01-.128h-.052c.023.113 0 .064.044.128h-.002zm-.186.774v-.13h-.065c.044.113.019.063.067.13h-.002zm-.295-.387h-.128v-.064c.116.04.067.013.13.062l-.002.002zm-.706-.064v-.128h-.063c.042.11.017.062.065.128h-.002zm.658-11.447a.507.507 0 00-.04-.321.666.666 0 01-.154.32h.194zm-.167.515l.08-.193c-.192.073-.175.043-.078.193h-.002zm-.986 9.773c-.063-.051-.017-.021-.124-.064.063.052.016.024.126.064h-.002zm-.082-.64l.01-.13h-.065l-.01.13h.065zm.503-6.752v-.129h-.046c.025.111 0 .06.048.126l-.002.003zm-.666 7.202l.02-.256h-.066c-.013.224-.1.109.048.254l-.002.002zm.04-4.888l.01-.128h-.062v.128h.052zm-.984 6.299c0-.15 0-.182-.046-.259.002.154 0 .186.046.259zm.095-1.283l.01-.128h-.065v.128h.055zm-.314-.964c.21-.053.095.03.21-.128-.046-.066-.02-.02-.054-.13h-.065v.064c-.066.068-.057.06-.091.192v.002zm.025.513c.087-.154.141-.11.085-.256l-.051-.192h-.065l-.034.448h.065z" fill="#14004B"/><defs><linearGradient id="paint0_linear_1_3442" x1="85.608" y1="48.813" x2="179.845" y2="-11.187" gradientUnits="userSpaceOnUse"><stop stop-color="#14004B"/><stop offset=".144" stop-color="#4164EE"/><stop offset=".629" stop-color="#9C88D7"/><stop offset=".879" stop-color="#F5AABE"/><stop offset="1" stop-color="#0AA"/></linearGradient></defs></svg>